<svg height="512" viewBox="0 0 64 64" width="512" xmlns="http://www.w3.org/2000/svg"><path d="m6 3h14v50h-14z" fill="#ffda44"/><path d="m6 41h14v4h-14z" fill="#ff5023"/><path d="m6 11h14v4h-14z" fill="#ff5023"/><path d="m20 3h14v50h-14z" fill="#3d9ae2"/><path d="m3 53h58v4h-58z" fill="#a78966"/><path d="m41.1 8.195h12v44h-12z" fill="#ff6243" transform="matrix(.966 -.259 .259 .966 -6.211 13.222)"/><path d="m51 57h6v4h-6z" fill="#806749"/><path d="m7 57h6v4h-6z" fill="#806749"/><path d="m39.702 12.776h6v2h-6z" fill="#e0e0e2" transform="matrix(.966 -.259 .259 .966 -2.11 11.521)"/><path d="m44.299 16.697h2v29h-2z" fill="#e0e0e2" transform="matrix(.966 -.259 .259 .966 -6.531 12.787)"/><path d="m48.163 15.662h2v29h-2z" fill="#e0e0e2" transform="matrix(.966 -.259 .259 .966 -6.131 13.751)"/><path d="m49.019 47.549h6v2h-6z" fill="#e0e0e2" transform="matrix(.966 -.259 .259 .966 -10.793 15.118)"/><g fill="#003f8a"><path d="m23 7h8v2h-8z"/><path d="m23 11h8v2h-8z"/><path d="m23 15h8v2h-8z"/><path d="m23 39h8v2h-8z"/><path d="m23 43h8v2h-8z"/><path d="m23 47h8v2h-8z"/></g><path d="m7 57h6v1h-6z" fill="#6a563d"/><path d="m51 57h6v1h-6z" fill="#6a563d"/><rect fill="#ffe26e" height="3" rx="1.5" width="6" x="7" y="4"/></svg>