<svg id="Capa_1" enable-background="new 0 0 510 510" height="512" viewBox="0 0 510 510" width="512" xmlns="http://www.w3.org/2000/svg"><path d="m510 157.739v330.01c0 9.37-8.56 16.56-17.92 14.71l-109.79-21.8s-117.85 20.05-124.23 21.13c-.67.19-1.86.29-3.06.29-1.16 0-2.34-.09-3.06-.29l-124.23-21.13-109.79 21.8c-9.29 1.84-17.92-5.27-17.92-14.71v-330.01c0-9.49 8.69-16.54 17.92-14.71l109.79 21.8 124.77-21.22c.84-.14 1.69-.2 2.52-.2.87 0 1.72.07 2.52.2l124.77 21.22 109.79-21.8c9.17-1.81 17.92 5.18 17.92 14.71z" fill="#f4f1f4"/><path d="m510 157.739v330.01c0 9.37-8.56 16.56-17.92 14.71l-109.79-21.8s-117.85 20.05-124.23 21.13c-.67.19-1.86.29-3.06.29v-358.67c.87 0 1.72.07 2.52.2l124.77 21.22 109.79-21.8c9.17-1.81 17.92 5.18 17.92 14.71z" fill="#cbc4cc"/><path d="m480 414.079v49.31c0 3.152-2.882 5.518-5.974 4.904l-72.5-14.394c-2.34-.465-4.026-2.518-4.026-4.904v-41.287c0-2.934 2.515-5.238 5.438-4.981l72.5 6.371c2.582.227 4.562 2.389 4.562 4.981z" fill="#00aadf"/><path d="m367.5 407.43v41.088c0 2.438-1.758 4.52-4.161 4.929l-87.5 14.888c-3.053.519-5.839-1.833-5.839-4.929v-49.38c0-2.616 2.016-4.789 4.624-4.986l87.5-6.596c2.901-.218 5.376 2.077 5.376 4.986z" fill="#00aadf"/><path d="m240 414.027v49.38c0 3.096-2.786 5.448-5.838 4.929l-85-14.459c-2.403-.409-4.162-2.491-4.162-4.929v-41.328c0-2.909 2.475-5.205 5.376-4.986l85 6.406c2.608.197 4.624 2.371 4.624 4.987z" fill="#53e361"/><path d="m115 407.488v41.007c0 2.386-1.686 4.439-4.026 4.904l-75 14.894c-3.092.614-5.974-1.752-5.974-4.904v-49.31c0-2.592 1.98-4.754 4.562-4.981l75-6.591c2.923-.257 5.438 2.046 5.438 4.981z" fill="#00aadf"/><path d="m480 182.109v49.3c0 2.592-1.98 4.754-4.562 4.981l-72.5 6.371c-2.923.257-5.438-2.047-5.438-4.981v-41.277c0-2.386 1.686-4.44 4.026-4.904l72.5-14.394c3.092-.614 5.974 1.752 5.974 4.904z" fill="#0065a3"/><path d="m367.5 196.97v41.088c0 2.91-2.475 5.205-5.376 4.986l-87.5-6.596c-2.608-.197-4.624-2.37-4.624-4.986v-49.38c0-3.097 2.786-5.449 5.839-4.929l87.5 14.888c2.403.409 4.161 2.491 4.161 4.929z" fill="#00aadf"/><path d="m240 182.082v49.38c0 2.616-2.016 4.789-4.624 4.986l-85 6.406c-2.901.219-5.376-2.076-5.376-4.986v-41.328c0-2.438 1.758-4.52 4.162-4.929l85-14.459c3.052-.519 5.838 1.833 5.838 4.93z" fill="#00d7df"/><path d="m115 197.004v40.996c0 2.934-2.515 5.238-5.438 4.981l-75-6.591c-2.582-.227-4.562-2.389-4.562-4.981v-49.3c0-3.152 2.882-5.518 5.974-4.904l75 14.894c2.34.465 4.026 2.519 4.026 4.905z" fill="#53e361"/><path d="m115 278.159v89.171c0 2.592-1.98 4.754-4.562 4.981l-75 6.6c-2.923.257-5.438-2.047-5.438-4.981v-102.362c0-2.934 2.515-5.238 5.438-4.981l75 6.591c2.582.227 4.562 2.389 4.562 4.981z" fill="#00d7df"/><path d="m240 271.58v102.328c0 2.909-2.474 5.204-5.375 4.986l-85-6.397c-2.608-.196-4.625-2.37-4.625-4.986v-89.525c0-2.616 2.016-4.789 4.624-4.986l85-6.406c2.901-.218 5.376 2.077 5.376 4.986z" fill="#53e361"/><path d="m367.5 278.176v89.145c0 2.616-2.016 4.79-4.625 4.986l-87.5 6.587c-2.901.218-5.375-2.077-5.375-4.986v-102.328c0-2.91 2.475-5.205 5.376-4.986l87.5 6.596c2.608.197 4.624 2.371 4.624 4.986z" fill="#00ab5e"/><path d="m480 271.568v102.362c0 2.934-2.515 5.238-5.438 4.981l-72.5-6.38c-2.582-.227-4.562-2.389-4.562-4.981v-89.611c0-2.592 1.98-4.754 4.562-4.981l72.5-6.371c2.923-.257 5.438 2.046 5.438 4.981z" fill="#0065a3"/><path d="m255 7.249c-55.054 0-99.685 44.631-99.685 99.685 0 45.169 67.081 146.002 91.185 180.789 2.058 2.968 5.274 4.457 8.5 4.457s6.442-1.489 8.5-4.457c24.104-34.787 91.185-135.62 91.185-180.789 0-55.054-44.631-99.685-99.685-99.685zm0 133.138c-17.828 0-32.274-14.446-32.274-32.274s14.446-32.274 32.274-32.274 32.274 14.446 32.274 32.274-14.446 32.274-32.274 32.274z" fill="#ff5e95"/><path d="m354.685 106.934c0 45.169-67.081 146.002-91.185 180.789-2.058 2.968-5.274 4.457-8.5 4.457v-151.793c17.828 0 32.274-14.446 32.274-32.274s-14.446-32.274-32.274-32.274v-68.59c55.054 0 99.685 44.631 99.685 99.685z" fill="#ff0059"/></svg>