<svg height="466pt" viewBox="0 -1 466.65494 466" width="466pt" xmlns="http://www.w3.org/2000/svg"><path d="m0 48.328125h272v352h-272zm0 0" fill="#4398d1"/><path d="m272 136.328125-264 264h264zm0 0" fill="#3e8cc7"/><path d="m0 432.800781c-.00390625 17.414063 14.113281 31.53125 31.527344 31.527344h208.945312c17.414063.003906 31.53125-14.113281 31.527344-31.527344v-32.472656h-272zm0 0" fill="#126099"/><path d="m240.472656.328125h-208.945312c-17.414063-.003906-31.53125025 14.113281-31.527344 31.527344v16.472656h272v-16.472656c.003906-17.414063-14.113281-31.53125-31.527344-31.527344zm0 0" fill="#126099"/><path d="m128 424.328125h16v16h-16zm0 0" fill="#3181bd"/><path d="m424 200.328125-48 8v-64l48 8zm0 0" fill="#d6d9db"/><path d="m176 368.328125h-40l-16-144h40zm0 0" fill="#e0e3e6"/><path d="m160 336.328125h-48v-80h64c8.835938 0 16 7.164063 16 16s-7.164062 16-16 16v32c0 8.835937-7.164062 16-16 16zm0 0" fill="#fec9a3"/><path d="m0 256.328125h112v80h-112zm0 0" fill="#e3584b"/><path d="m72 296.328125h16v16h-16zm0 0" fill="#75462e"/><path d="m120 128.328125h64v96h-64c-26.507812 0-48-21.492187-48-48 0-26.511719 21.492188-48 48-48zm0 0" fill="#e3584b"/><path d="m74.792969 160.328125c-5.246094 14.683594-3.015625 31.003906 5.980469 43.742187 8.996093 12.734376 23.632812 20.292969 39.226562 20.257813h64v-32h-64c-20.324219-.019531-38.433594-12.839844-45.207031-32zm0 0" fill="#d64740"/><path d="m184 128.328125v96l152 64v-224zm0 0" fill="#e0e3e6"/><path d="m356 32.328125c11.046875 0 20 8.953125 20 20v248c0 11.046875-8.953125 20-20 20s-20-8.953125-20-20v-248c0-11.046875 8.953125-20 20-20zm0 0" fill="#e3584b"/><path d="m356 208.328125c-11.046875 0-20-8.953125-20-20v112c0 11.046875 8.953125 20 20 20s20-8.953125 20-20v-112c0 11.046875-8.953125 20-20 20zm0 0" fill="#d64740"/><path d="m104 168.328125h16v24h-16zm0 0" fill="#75462e"/><path d="m136 168.328125h16v24h-16zm0 0" fill="#75462e"/><g fill="#87ced9"><path d="m437.59375 104.960938 24.003906-7.996094 5.058594 15.1875-24.007812 7.992187zm0 0"/><path d="m437.476562 247.917969 5.058594-15.179688 23.996094 8-5.058594 15.179688zm0 0"/><path d="m403.5625 41.667969 24.003906-16 8.875 13.3125-24 16zm0 0"/><path d="m403.558594 310.980469 8.878906-13.3125 24 16-8.875 13.3125zm0 0"/></g><path d="m24 80.328125h16v16h-16zm0 0" fill="#3181bd"/><path d="m56 80.328125h16v16h-16zm0 0" fill="#3181bd"/><path d="m88 80.328125h16v16h-16zm0 0" fill="#3181bd"/><path d="m184 192.328125v32l152 64v-96zm0 0" fill="#c7cacc"/></svg>